<svg xmlns="http://www.w3.org/2000/svg" width="1164.073" height="119.407" viewBox="0 0 1164.073 119.407"><defs><style>.a{fill:#f1f1f1;mix-blend-mode:multiply;isolation:isolate;}.b{fill:none;stroke:#707070;}.c{fill:#fff;}</style></defs><g transform="translate(384.935 0)"><g transform="translate(62.074 0)"><path class="a" d="M19.625,14.595l69.645,6.443L69.977,14.769,74.306,7.1,0,0,19.042,9.681Z" transform="matrix(-0.966, 0.259, -0.259, -0.966, 644.673, 72.67)"/><path class="a" d="M19.625,14.595l69.645,6.443L69.977,14.769,74.306,7.1,0,0,19.042,9.681Z" transform="matrix(-0.966, 0.259, -0.259, -0.966, 110.118, 95.807)"/><path class="a" d="M19.625,14.595l69.645,6.443L69.977,14.769,74.306,7.1,0,0,19.042,9.681Z" transform="matrix(-0.966, 0.259, -0.259, -0.966, 698.693, 90.308)"/><line class="b" y1="10.374" x2="75.011" transform="matrix(-0.999, -0.035, 0.035, -0.999, 638.593, 107.906)"/><line class="b" x1="78.089" y2="8.977" transform="translate(428.926 98.393)"/><line class="b" x1="43.089" y2="3.833" transform="translate(416.926 110.537)"/><line class="b" y1="8.778" x2="74.213" transform="matrix(-0.999, -0.035, 0.035, -0.999, 581.183, 82.745)"/><line class="b" y1="8.778" x2="74.213" transform="matrix(-0.999, -0.035, 0.035, -0.999, 356.183, 112.776)"/><line class="b" y1="11.172" x2="55.859" transform="matrix(-0.999, -0.035, 0.035, -0.999, 670.207, 71.481)"/><line class="b" y1="10.374" x2="44.688" transform="matrix(-0.999, -0.035, 0.035, -0.999, 665.523, 91.28)"/><line class="b" y1="10.374" x2="41.496" transform="matrix(-0.999, -0.035, 0.035, -0.999, 716.564, 93.062)"/><line class="b" y1="8.778" x2="48.678" transform="matrix(-0.999, -0.035, 0.035, -0.999, 621.782, 63.402)"/><line class="b" y1="2.394" x2="11.97" transform="matrix(-0.999, -0.035, 0.035, -0.999, 604.227, 85.945)"/><line class="b" y1="2.394" x2="11.97" transform="matrix(-0.999, -0.035, 0.035, -0.999, 213.227, 116.222)"/><line class="b" y1="3.192" x2="19.95" transform="matrix(-0.999, -0.035, 0.035, -0.999, 589.76, 88.634)"/><line class="b" y1="3.192" x2="19.95" transform="matrix(-0.999, -0.035, 0.035, -0.999, 198.76, 118.911)"/><g transform="translate(635.611 79.867) rotate(-177)"><path d="M31.748,54.027A9.291,9.291,0,0,1,30.635,58.8c-.71,1.439-1.6,2.789-2.355,4.207a30.484,30.484,0,0,0-1.906,3.941A5.718,5.718,0,0,0,27.657,72.9c5.477,6.343,16.293,4.537,19.465-3.2a11.077,11.077,0,0,0,.54-1.283,6.472,6.472,0,0,1,3.162-4.4c1.693-.951,1.889-2.851,1.388-4.692a21.439,21.439,0,0,0-3.89-7.11c-1.885-2.518-3.862-4.968-5.837-7.5.266-.236.532-.456.779-.694a3.5,3.5,0,0,0,.509-4.419c-.667-1.019-.681-1.994.3-2.657A48.207,48.207,0,0,1,49,34.174c.191-.1.833.215.929.467.519,1.356,1.039,2.672-.162,4.078a1.427,1.427,0,0,0,.68,2.485,1.678,1.678,0,0,1,1.185,1.547,4.6,4.6,0,0,0,.571,1.481,1.794,1.794,0,0,0,2.163,1c1.111-.377,2.321-.229,3.314-.565,1.284-.435,2.324-1.585,3.58-2.269.186-.1.251-.5.29-.778a5.568,5.568,0,0,0-2.536-5.038,2.023,2.023,0,0,1-.635-.923c-1.073-2.37-1.966-4.839-3.225-7.1a4.26,4.26,0,0,0-5.9-1.864,19.878,19.878,0,0,0-3.265,2.009A27.279,27.279,0,0,0,43.8,30.651,16.6,16.6,0,0,0,40.275,21.9a21.018,21.018,0,0,0-6.624-6.335c1.1-2.783,2.15-5.461,3.236-8.216.538.057,1.168.173,1.8.181,1.074.012,1.519-.688,1-1.627a4.819,4.819,0,0,0-1.1-1.294A27.323,27.323,0,0,0,31,.23c-1.272-.517-1.88-.171-2.22,1.137a29.651,29.651,0,0,0-.767,3.344,20.83,20.83,0,0,1-3.97,8.928,2.306,2.306,0,0,1-1.194.691c-.881.269-1.792.441-2.879.7-.247-.643-.54-1.388-.819-2.139a13.641,13.641,0,0,0-3.288-5.582A5.094,5.094,0,0,0,9.653,6.285c-1.683.842-3.232,1.95-4.869,2.89A1.786,1.786,0,0,1,3.676,9.3a18.471,18.471,0,0,0-2.367-.53,1.157,1.157,0,0,0-1.22,1.651A6.738,6.738,0,0,0,1.27,12.8a22.547,22.547,0,0,0,3.273,3.07c1.392,1.06,2.322.909,3.619-.276.475-.435.957-.863,1.411-1.318s.868-.932,1.421-1.531l2.674,2.8c-.865.124-1.449.2-2.029.293-2.867.481-6.753,3.192-6.58,7.229a5.015,5.015,0,0,0,.329,1.145,3.5,3.5,0,0,0,.96-.679A7.36,7.36,0,0,1,10.28,20.7a.948.948,0,0,1,.793.181.781.781,0,0,1-.01.728C8.018,26.472,7.658,31.742,8.627,37.228A21.085,21.085,0,0,0,11.25,45a14.345,14.345,0,0,0,11.831,6.9,13.89,13.89,0,0,0,2.573-.016c.978-.112,1.65-.059,1.986,1.109.269.936,1.682,1.42,2.95,1.262C30.937,54.21,31.28,54.12,31.748,54.027Zm2.927-13.956c1.314.593,2.572,1.149,3.817,1.732a1.669,1.669,0,0,1,.561.477c3.047,3.83,6.165,7.608,9.089,11.53a31.179,31.179,0,0,1,2.873,5.252c.726,1.517.5,3.379-.677,4-2.107,1.111-2.979,2.908-3.545,5.025a10.182,10.182,0,0,1-.721,1.672A9.639,9.639,0,0,1,40.4,75c-4.2,1.451-8.208,1.312-11.682-1.849a5.3,5.3,0,0,1-1.368-6.26,50.1,50.1,0,0,1,2.907-5.353,14.971,14.971,0,0,0,1.923-12.523,1.41,1.41,0,0,1,.031-.93A21.907,21.907,0,0,0,34.675,40.071ZM20.159,18.252a15.637,15.637,0,0,0,2.273-1.545,21.638,21.638,0,0,0,6.046-10.19c.391-1.522.7-3.066,1.061-4.595.129-.544.33-1.134,1.068-.719q3.817,2.148,7.6,4.367c.286.169.44.56.656.849a3.407,3.407,0,0,1-1.7-.026c-.93-.263-1.306-.037-1.624.982-.919,2.946-1.526,6.051-3.716,8.458a16.5,16.5,0,0,1-9.035,5.4,1.17,1.17,0,0,1-.987-.264C21.187,20.1,20.687,19.151,20.159,18.252Zm4.96,8.1a4.418,4.418,0,0,0,.194-1.277c-.107-.752.337-.88.868-.9a1.133,1.133,0,0,1,1.274,1.151c.046.577.01,1.16.01,1.74l.2.049.715-1.891a1.948,1.948,0,0,1,.143,2.79,22.829,22.829,0,0,1-1.981,2.247A8.191,8.191,0,0,0,24.3,34.69a10.485,10.485,0,0,0,.156,2.164c.433-.762.605-1.525.978-1.641,1.939-.6,3.919-1.094,5.909-1.512a1.551,1.551,0,0,1,2.013,1.139,1.627,1.627,0,0,1-1.139,2.193,66.54,66.54,0,0,1-6.835,1.716,10.688,10.688,0,0,1-6.133-.281c-1.523-.631-1.853-1.172-1.66-2.8a17.03,17.03,0,0,1,4.27-9.076c.313-.368.578-.777.971-1.311H21.812a1.156,1.156,0,0,1,1.268-1.314C24.744,23.909,24.615,25.306,25.119,26.355ZM52.478,41.938c.629.033,1.124.1,1.613.072a3.325,3.325,0,0,0,1.555-.263,2.218,2.218,0,0,0,1.044-1.377c.04-1.092-1.695-2.239-2.983-1.931a16.6,16.6,0,0,0,1.482,1.282,4.293,4.293,0,0,1,.588.813c-.282.173-.577.511-.842.488a17.116,17.116,0,0,1-3.339-.488c-1.507-.439-1.567-.723-.5-1.933a2.05,2.05,0,0,0,.475-2.171c-.382-1.111-.8-2.216-1.283-3.285a8.452,8.452,0,0,0-1.008-1.4l-.217.129c.063.334.126.668.173.917l-5.164,2.665c0-.968-.024-1.963.014-2.955a1.33,1.33,0,0,1,.307-.881A35.6,35.6,0,0,1,49,27.837c2.019-1.223,3.49-.928,4.9.706,2,2.312,2.787,5.242,3.84,7.791l-1.117,1.325c2.594-.395,3.149-.054,3.83,2.4a5.359,5.359,0,0,1,.205.942c.081.921-.517,1.5-1.388,1.208s-1.066.012-1.139.8c-.078.831-.66,1.124-1.455.8-.326-.132-.63-.319-.944-.481l.049.262c-.678.228-1.422.75-2.018.616C52.818,44,52.6,43,52.478,41.938ZM18.926,14.75c-.7.189-1.052.26-1.383.377a8.364,8.364,0,0,0-.979.428c-1.245.631-1.607.454-2.464-.708a28.184,28.184,0,0,0-2.556-2.852c-.481-.5-.967-.413-1.461.131-.863.951-1.8,1.835-2.7,2.751a1.627,1.627,0,0,1-2.312.241A10.274,10.274,0,0,1,1.482,11.37a12.8,12.8,0,0,1-.5-1.461c1.761-.3,2.764.279,2.873,1.684a6.685,6.685,0,0,0,1.067-.97A10.778,10.778,0,0,1,9.661,7.249C12.352,6.014,14.354,6.426,16,8.9A50.867,50.867,0,0,1,18.926,14.75ZM9.365,37.2c.73.262,1.26.462,1.8.643,1.728.586,2.594.228,3.127-1.509a46.631,46.631,0,0,0,1.245-5.095c.293-1.567-1.468-4.756-2.947-5.364a10.529,10.529,0,0,0-2.255-.4c.25-1.059.268-1.142.949-.995a3.025,3.025,0,0,0,3.258-1.324c.345-.449.714-.88,1.13-1.388l.928.469c-1.727,1.652-1.888,2.365-.849,4.362.683,1.311,1.485,2.56,2.3,3.951-.337.574-.41,1.6-1.56,1.841-.234.049-.466.536-.538.856-.37,1.638-.7,3.284-1.018,4.933a2.111,2.111,0,0,0,.861,2.374,19.45,19.45,0,0,0,3.718,1.837c1.5.5,2.082.079,2.449-1.476.22-.93.727-1.1,1.566-.853-.129.682-.3,1.3-.358,1.936-.194,2.248.654,3.175,2.874,3.266.8.032,1.587.145,2.512.233l-.662,1.654a12.286,12.286,0,0,0-2.673-1.346,7.969,7.969,0,0,0-3.084,0c-2.518.456-3.109,1.4-2.726,3.979a5.374,5.374,0,0,1,0,.651l-2.529-1.036a5.32,5.32,0,0,0,2.1-4.146,2.508,2.508,0,0,0-1.7-2.783,11.249,11.249,0,0,1-2.879-1.815c-1.378-1.365-2.588-2.823-4.748-1.127Zm-.35-4.092-.19-.032c.318-2,.613-4.01.983-6a1.152,1.152,0,0,1,.735-.708c2.15-.523,4.9,2.313,4.467,4.67-.343,1.856-.877,3.676-1.312,5.516a1.233,1.233,0,0,1-1.514,1c-2.3-.193-2.98-.878-3.1-3.159Q9.048,33.75,9.015,33.108Zm20.7-4.766c3.076,1.994,5.668,4.327,6.972,7.795a3.929,3.929,0,0,0,3.132,2.733c.526.1,1.041.253,1.565.364a2.155,2.155,0,0,1,1.826,1.73,2.577,2.577,0,0,1-.882,2.6.855.855,0,0,1-.809.1A18.512,18.512,0,0,1,40.1,42.046l1.222-.408a2.542,2.542,0,0,0-1.107-.505,9.622,9.622,0,0,1-2.473-.647c-2.929-1.7-3.845-1.764-3.491-4.958.184-1.66-1.006-2.706-2.7-2.775a2.227,2.227,0,0,1-1.191-.28c-.849-.637-1.62-1.376-2.418-2.074Zm-1.531-4.293c1.063-1.958,6.161-4.187,8.085-4.648a.685.685,0,0,1,.567.122c.87.951,1.709,1.929,2.68,3.041a28.243,28.243,0,0,0-8.445,4.781c-.672.542-1.086.326-1.044-.513A2.385,2.385,0,0,0,28.184,24.048ZM16.357,49.066a16.874,16.874,0,0,1-6.379-8.438.836.836,0,0,1,.007-.673,2.131,2.131,0,0,1,2.753-.152,13.6,13.6,0,0,0,4.654,3.352,1.854,1.854,0,0,1,.958,1.024A4.614,4.614,0,0,1,16.357,49.066Zm15.032.862.2.054c.088.737.2,1.472.247,2.212a.8.8,0,0,1-.278.616c-1.308.875-3.163.446-3.322-1.052a5.664,5.664,0,0,1-.094-1.9c.324-1.269.863-2.482,1.247-3.738.729-2.391,2.292-4.606,1.487-7.369l2.43-1.038a7.608,7.608,0,0,1-.052,4.774c-.575,1.8-1.325,3.544-1.927,5.336-.366,1.09-.6,2.227-.887,3.343l.353.084Zm10.683-22.75c-1.457.5-2.655.849-3.8,1.318-1.187.483-2.317,1.105-3.5,1.61a1.287,1.287,0,0,1-1.037.043c-.884-.653-1.69-1.409-2.527-2.128a18.787,18.787,0,0,1,7.884-4.645,1.244,1.244,0,0,1,1.069.309C40.848,24.789,41.423,25.964,42.072,27.178Zm-21.488-.349c-.227-.463-.329-.638-.4-.825-1.723-4.454-3.068-5.393-7.762-5.491a.915.915,0,0,1-.676-.559,2.324,2.324,0,0,1,1.065-2.4,4.787,4.787,0,0,1,5.4.353,10.847,10.847,0,0,1,3.131,5.019,1.976,1.976,0,0,1-.026.9c-.11.614-.256,1.222-.4,1.829C20.847,25.963,20.748,26.262,20.584,26.829Zm4.24,24.135c-.57,0-1.036.034-1.5-.007-.853-.076-1.706-.168-2.549-.312a1.277,1.277,0,0,1-.8-.427,2.324,2.324,0,0,1,1.136-3.54A12.573,12.573,0,0,1,25,46.249a2.145,2.145,0,0,1,2.353,2.234c-.061,2.142-.213,2.3-2.313,2.461C24.933,50.952,24.826,50.964,24.824,50.964Zm5.3-11.974c.55,2.281-.818,3.947-1.4,5.8-1,.018-1.994.037-2.99.053-.143,0-.324.039-.421-.032-.513-.372-1.36-.719-1.432-1.178a12.466,12.466,0,0,1,.149-3.23c.021-.192.366-.456.6-.5C26.407,39.582,28.2,39.3,30.121,38.99Zm4.209-8.209c2.656-1.107,5.008-2.577,7.935-2.883q.373,1.989.715,3.816c-1.472.311-2.8.577-4.113.876-.9.2-1.952.854-2.648.578C35.458,32.865,35.03,31.726,34.33,30.781Zm1.8-12.1c-.771.284-1.237.452-1.7.628a15.249,15.249,0,0,0-5.884,3.593c-.442.465-.758.928-1.6.618-.811-.3-1.315-.7-1.292-1.55a1.141,1.141,0,0,1,.454-.861A21.874,21.874,0,0,0,32.318,16.8c.169-.176.624-.324.781-.225C34.074,17.191,35,17.883,36.132,18.684Zm.456,15.2c2.674-1.148,5.164-1.614,6.532-1.191-.077,1.021-.156,2.071-.226,3.008l-4.816,1.014c-.384-.706-.793-1.454-1.2-2.2C36.784,34.327,36.705,34.134,36.588,33.882ZM21.57,40.094c.085,1.93-.6,2.566-2.332,1.9a11.419,11.419,0,0,1-3.175-1.906,2.434,2.434,0,0,1-.619-1.9c.2-1.59.63-3.152.991-4.719a3.408,3.408,0,0,1,.36-.723C15.917,38.6,16.752,38.99,21.57,40.094ZM17.058,22.7c1.632,1.205,2.138,3,2.51,4.74.136.634-.641,1.463-1.094,2.4a9.436,9.436,0,0,1-.871-1.08c-.5-.9-.978-1.814-1.434-2.737C15.4,24.459,15.556,23.864,17.058,22.7ZM11.8,16.781c-.353.759-.712,1.551-1.09,2.333a1.017,1.017,0,0,1-.366.465c-1.277.647-2.568,1.267-3.824,1.881C6.8,19.452,9.248,17.3,11.8,16.781Zm3.049,4.877c-.911,2.173-2.012,2.784-3.928,2.181C12.189,21.377,12.978,20.938,14.852,21.658Zm23.761,15.8.015-.49L42.79,36.3c-.166.9-.272,1.474-.4,2.191ZM29.4,32.877c-1.689.959-2.059.9-3.2-.454l1.132-1.52Zm-11.811-16.9a3.81,3.81,0,0,1,3.576.683C19.679,17.913,19.312,17.845,17.585,15.976Zm7.29,7.579c-.635-.878-2.236.17-2.638-1.345C24.7,21.623,24.886,21.711,24.875,23.555Z" transform="translate(0)"/><path class="c" d="M7.817,0a21.907,21.907,0,0,1-2.46,8.01,1.41,1.41,0,0,0-.031.93A14.971,14.971,0,0,1,3.4,21.464,50.1,50.1,0,0,0,.5,26.817a5.3,5.3,0,0,0,1.368,6.26c3.474,3.161,7.484,3.3,11.682,1.849a9.639,9.639,0,0,0,5.669-5.239,10.183,10.183,0,0,0,.721-1.672c.566-2.118,1.438-3.915,3.545-5.025,1.175-.619,1.4-2.481.677-4a31.183,31.183,0,0,0-2.873-5.252c-2.925-3.922-6.042-7.7-9.089-11.53a1.668,1.668,0,0,0-.561-.477C10.389,1.149,9.131.593,7.817,0ZM14.3,15.783a10.229,10.229,0,0,1,.968-2.377,2.421,2.421,0,0,1,1.7-.991c.477.03,1.171.775,1.3,1.317.3,1.235.785,2.06,2.135,2.256a2.645,2.645,0,0,1,1.091.655,1.407,1.407,0,0,1,0,2.424,4.2,4.2,0,0,1-1.417.713c-1,.272-2.038.381-3.026.674-.62.184-1.015.011-1.218-.5C15.284,18.574,14.8,17.169,14.3,15.783ZM15.317,25.7c-.645,1-1.227,2-1.92,2.908a1.2,1.2,0,0,1-1.072.372,1.159,1.159,0,0,1-.526-1.01,16.652,16.652,0,0,1,1.285-3.073c.205-.372.991-.835,1.191-.716C14.693,24.426,14.9,25.034,15.317,25.7Zm3.91,1.266a19.305,19.305,0,0,1-1.377,2.544c-.58.776-1.514.567-1.591-.389a6.385,6.385,0,0,1,.515-2.837,1.751,1.751,0,0,1,1.477-.7C18.581,25.614,18.838,26.377,19.227,26.963Z" transform="translate(26.858 40.071)"/><path class="c" d="M0,17.189c.529.9,1.029,1.845,1.636,2.715a1.17,1.17,0,0,0,.987.264,16.5,16.5,0,0,0,9.035-5.4c2.19-2.406,2.8-5.511,3.716-8.457.318-1.019.693-1.245,1.624-.982a3.408,3.408,0,0,0,1.7.026c-.215-.288-.37-.68-.656-.849Q14.268,2.285,10.448.14C9.71-.275,9.509.314,9.38.859c-.364,1.529-.67,3.072-1.061,4.595a21.638,21.638,0,0,1-6.046,10.19A15.641,15.641,0,0,1,0,17.189Z" transform="translate(20.159 1.064)"/><path class="c" d="M7.58,2.39C7.076,1.34,7.206-.056,5.541,0A1.156,1.156,0,0,0,4.273,1.316H5.291c-.393.534-.658.943-.971,1.311A17.03,17.03,0,0,0,.05,11.7c-.193,1.627.137,2.167,1.66,2.8a10.688,10.688,0,0,0,6.133.281,66.535,66.535,0,0,0,6.835-1.716,1.627,1.627,0,0,0,1.139-2.193A1.551,1.551,0,0,0,13.8,9.735c-1.99.419-3.969.909-5.909,1.512-.372.116-.544.879-.978,1.641a10.488,10.488,0,0,1-.156-2.164A8.191,8.191,0,0,1,9.005,6.3a22.824,22.824,0,0,0,1.981-2.247,1.948,1.948,0,0,0-.143-2.79l-.715,1.891-.2-.049c0-.58.037-1.163-.009-1.74A1.133,1.133,0,0,0,8.643.215c-.531.018-.975.146-.868.9A4.417,4.417,0,0,1,7.58,2.39Z" transform="translate(17.539 23.966)"/><path class="c" d="M8.417,14.852c.117,1.06.339,2.058,1.291,2.273.6.134,1.34-.388,2.018-.616l-.049-.262c.314.163.618.349.944.482.794.321,1.377.028,1.455-.8.073-.785.268-1.09,1.139-.8s1.468-.287,1.388-1.208a5.363,5.363,0,0,0-.205-.942c-.681-2.459-1.237-2.8-3.83-2.4l1.117-1.325c-1.054-2.55-1.84-5.479-3.84-7.791C8.429-.177,6.958-.472,4.939.751A35.608,35.608,0,0,0,.328,4.536a1.33,1.33,0,0,0-.307.881C-.016,6.41.007,7.4.007,8.372L5.171,5.707c-.047-.249-.11-.583-.173-.917l.217-.129a8.452,8.452,0,0,1,1.008,1.4c.487,1.069.9,2.174,1.283,3.285a2.05,2.05,0,0,1-.475,2.171c-1.063,1.21-1,1.495.5,1.933a17.115,17.115,0,0,0,3.339.488c.265.022.561-.316.842-.488a4.292,4.292,0,0,0-.588-.813,16.589,16.589,0,0,1-1.482-1.282c1.288-.307,3.023.839,2.983,1.931a2.218,2.218,0,0,1-1.044,1.377,3.326,3.326,0,0,1-1.555.263C9.541,14.951,9.046,14.884,8.417,14.852Z" transform="translate(44.061 27.086)"/><path class="c" d="M17.944,8.176A50.869,50.869,0,0,0,15.02,2.322C13.372-.149,11.37-.561,8.679.674A10.778,10.778,0,0,0,3.94,4.048a6.684,6.684,0,0,1-1.067.97C2.764,3.613,1.761,3.039,0,3.334A12.8,12.8,0,0,0,.5,4.8,10.274,10.274,0,0,0,4.088,8.543,1.627,1.627,0,0,0,6.4,8.3c.9-.916,1.839-1.8,2.7-2.751.494-.544.979-.626,1.461-.131a28.177,28.177,0,0,1,2.556,2.852c.857,1.163,1.218,1.339,2.464.708a8.36,8.36,0,0,1,.979-.428C16.892,8.436,17.239,8.365,17.944,8.176Z" transform="translate(0.982 6.575)"/><path class="c" d="M0,15.435l.292,2.323c2.16-1.7,3.37-.238,4.748,1.127A11.25,11.25,0,0,0,7.918,20.7a2.508,2.508,0,0,1,1.7,2.783,5.32,5.32,0,0,1-2.1,4.146l2.529,1.036a5.375,5.375,0,0,0,0-.651c-.383-2.575.209-3.523,2.726-3.979a7.969,7.969,0,0,1,3.084,0,12.286,12.286,0,0,1,2.673,1.346l.662-1.654c-.924-.088-1.717-.2-2.512-.233-2.221-.091-3.068-1.019-2.874-3.266.054-.632.228-1.254.358-1.936-.839-.244-1.346-.078-1.566.853-.368,1.555-.951,1.979-2.449,1.476A19.452,19.452,0,0,1,6.43,18.787a2.112,2.112,0,0,1-.861-2.374c.317-1.649.648-3.3,1.019-4.933.072-.32.3-.807.538-.856,1.15-.24,1.223-1.267,1.56-1.841-.816-1.392-1.619-2.64-2.3-3.951-1.039-2-.878-2.711.849-4.362L6.3,0c-.415.508-.784.939-1.13,1.388A3.025,3.025,0,0,1,1.916,2.711c-.681-.147-.7-.064-.949.995a10.529,10.529,0,0,1,2.255.4c1.479.608,3.24,3.8,2.947,5.364a46.636,46.636,0,0,1-1.245,5.095c-.533,1.737-1.4,2.1-3.127,1.509C1.26,15.9.73,15.7,0,15.435Z" transform="translate(9.365 21.765)"/><path class="c" d="M.19,6.806q.034.642.068,1.284c.121,2.281.8,2.966,3.1,3.159a1.232,1.232,0,0,0,1.514-1c.435-1.839.97-3.66,1.312-5.516C6.62,2.376,3.868-.46,1.718.063A1.152,1.152,0,0,0,.983.771c-.37,1.993-.665,4-.983,6Z" transform="translate(8.826 26.302)"/><path class="c" d="M1.774,0,0,2.057c.8.7,1.57,1.437,2.418,2.074a2.227,2.227,0,0,0,1.191.28c1.7.069,2.888,1.115,2.7,2.775-.354,3.194.562,3.261,3.491,4.958a9.621,9.621,0,0,0,2.473.647,2.542,2.542,0,0,1,1.107.505l-1.222.408a18.5,18.5,0,0,0,1.416,1.614.855.855,0,0,0,.809-.1,2.577,2.577,0,0,0,.882-2.6,2.155,2.155,0,0,0-1.826-1.73c-.524-.111-1.039-.264-1.565-.364A3.929,3.929,0,0,1,8.746,7.794C7.442,4.327,4.85,1.994,1.774,0Z" transform="translate(27.941 28.342)"/><path class="c" d="M0,4.664A2.385,2.385,0,0,1,1.844,7.447c-.043.839.371,1.054,1.044.513a28.242,28.242,0,0,1,8.445-4.781C10.36,2.067,9.521,1.088,8.652.137A.685.685,0,0,0,8.085.015C6.161.477,1.063,2.705,0,4.664Z" transform="translate(28.184 19.385)"/><path class="c" d="M6.446,9.7A4.614,4.614,0,0,0,8.438,4.809,1.854,1.854,0,0,0,7.48,3.786,13.6,13.6,0,0,1,2.827.433,2.132,2.132,0,0,0,.074.585a.836.836,0,0,0-.007.673A16.874,16.874,0,0,0,6.446,9.7Z" transform="translate(9.911 39.37)"/><path class="c" d="M3.3,12.214,2.71,13.538l-.353-.084c.291-1.116.521-2.253.887-3.343C3.845,8.318,4.6,6.574,5.17,4.774A7.609,7.609,0,0,0,5.222,0L2.792,1.038C3.6,3.8,2.035,6.016,1.305,8.407.922,9.663.382,10.876.059,12.145a5.664,5.664,0,0,0,.094,1.9c.159,1.5,2.014,1.927,3.322,1.052a.8.8,0,0,0,.278-.616C3.706,13.74,3.593,13,3.5,12.268Z" transform="translate(28.09 37.715)"/><path class="c" d="M10.865,3.82C10.215,2.606,9.641,1.431,8.952.327A1.244,1.244,0,0,0,7.884.018,18.787,18.787,0,0,0,0,4.663c.836.719,1.643,1.476,2.527,2.128a1.287,1.287,0,0,0,1.037-.043c1.179-.505,2.309-1.127,3.5-1.61C8.21,4.67,9.408,4.319,10.865,3.82Z" transform="translate(31.208 23.358)"/><path class="c" d="M8.876,9.948c.163-.567.262-.865.334-1.17.144-.607.289-1.216.4-1.829a1.975,1.975,0,0,0,.026-.9A10.847,10.847,0,0,0,6.505,1.027,4.787,4.787,0,0,0,1.1.674a2.324,2.324,0,0,0-1.065,2.4.915.915,0,0,0,.676.559c4.694.1,6.039,1.037,7.762,5.491C8.547,9.31,8.649,9.485,8.876,9.948Z" transform="translate(11.708 16.881)"/><path class="c" d="M5.254,4.724s.108-.012.215-.02c2.1-.158,2.252-.319,2.313-2.461A2.145,2.145,0,0,0,5.429.009a12.572,12.572,0,0,0-3.881.43A2.324,2.324,0,0,0,.412,3.979a1.277,1.277,0,0,0,.8.427c.843.144,1.7.236,2.549.312C4.218,4.758,4.685,4.724,5.254,4.724Z" transform="translate(19.57 46.24)"/><path class="c" d="M6.309,0C4.389.314,2.594.593.807.918c-.23.042-.574.307-.6.5a12.463,12.463,0,0,0-.149,3.23C.135,5.1.982,5.451,1.5,5.823c.1.07.278.034.421.032,1-.016,1.994-.035,2.99-.053C5.49,3.947,6.858,2.281,6.309,0Z" transform="translate(23.813 38.99)"/><path class="c" d="M0,2.883c.7.945,1.128,2.084,1.888,2.386.7.276,1.746-.373,2.648-.578,1.317-.3,2.642-.564,4.113-.876Q8.307,1.986,7.935,0C5.008.306,2.656,1.776,0,2.883Z" transform="translate(34.33 27.897)"/><path class="c" d="M10.475,2.142C9.344,1.341,8.416.649,7.442.032c-.157-.1-.612.049-.782.225A21.874,21.874,0,0,1,.455,4.571,1.141,1.141,0,0,0,0,5.432c-.023.854.482,1.251,1.292,1.55.838.309,1.155-.153,1.6-.618A15.249,15.249,0,0,1,8.774,2.771C9.238,2.595,9.7,2.427,10.475,2.142Z" transform="translate(25.657 16.542)"/><path class="c" d="M0,1.345c.117.252.2.444.294.626.4.751.813,1.5,1.2,2.2L6.306,3.162c.07-.937.15-1.987.226-3.008C5.164-.269,2.674.2,0,1.345Z" transform="translate(36.588 32.538)"/><path class="c" d="M6.14,7.348C1.321,6.244.486,5.856,1.364,0A3.406,3.406,0,0,0,1,.723C.644,2.29.217,3.852.014,5.442a2.434,2.434,0,0,0,.619,1.9A11.419,11.419,0,0,0,3.808,9.244C5.537,9.913,6.225,9.278,6.14,7.348Z" transform="translate(15.43 32.746)"/><path class="c" d="M1.343,0c-1.5,1.167-1.66,1.762-.89,3.319.456.923.932,1.838,1.434,2.737a9.439,9.439,0,0,0,.871,1.08c.454-.932,1.23-1.762,1.094-2.4C3.481,3,2.975,1.205,1.343,0Z" transform="translate(15.715 22.697)"/><path class="c" d="M5.28,0C2.724.521.282,2.671,0,4.679,1.256,4.065,2.547,3.446,3.824,2.8a1.016,1.016,0,0,0,.366-.465C4.568,1.551,4.927.759,5.28,0Z" transform="translate(6.523 16.781)"/><path class="c" d="M3.928.313C2.054-.407,1.266.032,0,2.494,1.916,3.1,3.017,2.486,3.928.313Z" transform="translate(10.924 21.345)"/><path class="c" d="M0,1.152,3.771,2.191C3.9,1.474,4.01.9,4.176,0L.015.662Z" transform="translate(38.613 36.303)"/><path class="c" d="M3.2,1.974,1.132,0,0,1.52C1.144,2.877,1.514,2.933,3.2,1.974Z" transform="translate(26.193 30.903)"/><path class="c" d="M0,.181C1.727,2.051,2.094,2.119,3.576.864A3.81,3.81,0,0,0,0,.181Z" transform="translate(17.585 15.795)"/><path class="c" d="M2.638,1.667C2.649-.177,2.46-.265,0,.322.4,1.837,2,.789,2.638,1.667Z" transform="translate(22.237 21.888)"/><path d="M0,3.37C.506,4.756.989,6.161,1.537,7.541c.2.511.6.683,1.218.5.988-.293,2.03-.4,3.026-.674A4.2,4.2,0,0,0,7.2,6.654a1.407,1.407,0,0,0,0-2.424A2.645,2.645,0,0,0,6.1,3.575c-1.35-.2-1.839-1.021-2.135-2.256C3.839.777,3.145.031,2.668,0a2.421,2.421,0,0,0-1.7.991A10.229,10.229,0,0,0,0,3.37ZM6.141,6.115c-1.921,1.067-3.7,1.2-4.1.271C3.377,6.292,4.564,5.182,6.141,6.115Z" transform="translate(41.153 52.483)"/><path d="M3.532,1.539C3.112.876,2.908.267,2.49.019,2.29-.1,1.5.363,1.3.735A16.65,16.65,0,0,0,.014,3.808,1.159,1.159,0,0,0,.54,4.819a1.2,1.2,0,0,0,1.072-.372C2.3,3.534,2.887,2.537,3.532,1.539Z" transform="translate(38.643 64.229)"/><path d="M2.982,1.385C2.593.8,2.336.036,2.007,0A1.751,1.751,0,0,0,.53.7,6.385,6.385,0,0,0,.014,3.541C.091,4.5,1.025,4.705,1.6,3.929A19.3,19.3,0,0,0,2.982,1.385Z" transform="translate(43.103 65.649)"/><path class="c" d="M4.1.371C2.52-.562,1.333.548,0,.642.4,1.576,2.176,1.438,4.1.371Z" transform="translate(43.197 58.228)"/></g><g transform="translate(698.281 98.163) rotate(-177)"><path d="M26.572,49.87a9.982,9.982,0,0,0,1.768-1.1c.791-.744.544-1.591-.436-2.072a13.041,13.041,0,0,1-1.444-.924,2.526,2.526,0,0,0-3.555.2c-1.941,1.908-2.419,3.629-.924,5.917a10.808,10.808,0,0,0,15.168,3.254A2.195,2.195,0,0,1,37.542,55a8.687,8.687,0,0,1,.033,5.09c-.7,2.425-1.473,4.84-2.395,7.189a14.251,14.251,0,0,0-1.252,7.051,1.478,1.478,0,0,1-.58,1.072,9.258,9.258,0,0,0-2.987,4.283,2.811,2.811,0,0,0,.1,2.062c.139.265,1.257.252,1.787.026a23.733,23.733,0,0,0,3.485-1.907,5.981,5.981,0,0,0,1.14-1.169L42.545,80c.181,1.736.141,3.8,2.092,5.32a7.879,7.879,0,0,0,1.308-3.342,8.166,8.166,0,0,0-.033-2.175c-.22-1.835-.218-1.791,1.425-2.793,2.954-1.8,5.99-2.727,9.386-1.274,1.9.814,3.813,1.624,5.764,2.312a14.386,14.386,0,0,0,3.568.807A4.589,4.589,0,0,0,71.208,75.1a12.2,12.2,0,0,0-.478-6.905c-2.7-8.724-9.367-12.556-17.689-14.327-1.232-.262-2.494-.388-3.789-.584C49.816,51.873,50.5,50.472,50.93,49s.6-3,.9-4.542a4.443,4.443,0,0,1,4.521,1.266A2.458,2.458,0,0,0,54.4,47.383a2.015,2.015,0,0,0,.715,2.686,3.5,3.5,0,0,0,3.624.849c1.257-.536,1.542-1.77,1.684-3.058.483-4.377-3-10.108-7.857-10.685-.334-.039-.759-.551-.874-.925a16.986,16.986,0,0,1-.37-2.267c-.15-.922-.363-1.82.877-2.252.224-.078.4-.719.359-1.074a12.06,12.06,0,0,0-2.852-6.784C48.252,22.2,46.744,20.581,45.313,19l6.214-9.3a17.123,17.123,0,0,0,2.4.655c1.183.159,1.831-.523,1.482-1.65a8.068,8.068,0,0,0-1.432-2.824A19.216,19.216,0,0,0,44.906.24C43.159-.32,42.385.073,41.553,1.7c-1.372,2.693-2.662,5.43-4.11,8.081a39.584,39.584,0,0,1-2.974,4.5,2.364,2.364,0,0,1-1.49.8c-1.675.2-3.37.2-5.047.377a1.134,1.134,0,0,1-1.37-.806,27.463,27.463,0,0,0-6.469-9.275c-2.146-1.913-3.766-2.128-5.99-.271C11.935,6.919,9.936,8.932,7.812,10.9c-.59-.382-1.29-.91-2.053-1.315-1.216-.645-2.04-.062-1.942,1.315a.415.415,0,0,0,.01.114c1.224,3.16,2.479,6.313,5.362,8.4,1.111.8,1.788.695,2.881-.242C13.438,18,14.8,16.816,16.314,15.5l1.932,2.724c-.454.231-.78.4-1.106.561A19.8,19.8,0,0,0,5.64,35.1c-.643,5.4.12,10.713.546,16.064a22.944,22.944,0,0,1-.414,6.614C5.15,60.642,3.522,62.869,0,63.433a10.28,10.28,0,0,0,7.641.216,9.5,9.5,0,0,0,5.873-5.92c.98-2.678.973-5.487,1.352-8.25.368-2.692.8-5.384,1.42-8.027a8.2,8.2,0,0,1,3.609-5.027,3.645,3.645,0,0,1,3.815-.348A20.078,20.078,0,0,1,34.142,47.062a1.293,1.293,0,0,1-.057,1.038C32.475,50.438,28.413,51.275,26.572,49.87Zm4.38,31.23c.8-3.72,3.165-5.566,6.517-6.466l-.217-.387-2.53.288a11.8,11.8,0,0,1,.906-5.915c.645-1.558,1.333-3.1,1.867-4.7.905-2.7,1.747-5.448,1.107-8.336a2.54,2.54,0,0,1,.64-2.569,13.062,13.062,0,0,0,1.349-2.15l-.33-.188c-.6.686-1.189,1.388-1.811,2.056a9.8,9.8,0,0,1-5.816,3.449c-3.509.487-6.377-.993-8.977-3.084-2.492-2-2.232-4.228-.026-6.489.874-.9,1.613-.811,2.592.138l-.534.572,2.21.328c-.669,1.495-1.961,1.324-3.075,1.495.781,1.966,4.464,2.832,7.162,1.741,2.555-1.033,4.721-3.743,4.121-5.245l-1.07,1.153c-1.81-4.939-5.389-8.062-9.644-10.689-3.338-2.061-6.217-1.277-8.395,1.744A14.558,14.558,0,0,0,14.7,43.4c-.638,3.224-.818,6.539-1.217,9.813a13.74,13.74,0,0,1-2.128,6.489c-1.911,2.707-5.751,4.33-8.589,3.564,3.244-2,4.112-5.168,4.311-8.593a35.412,35.412,0,0,0-.17-5.159c-.4-4.472-.91-8.929-.352-13.434.434-3.5,1.047-6.885,3.339-9.758,1.973-2.473,3.994-4.812,6.9-6.3A31.518,31.518,0,0,1,27.8,16.563c1.6-.176,3.211-.293,4.809-.436l-7.216,7.959c1.112-.775,2.217-1.612,3.287-2.491A39.371,39.371,0,0,0,39.058,9.119c1.149-2.249,2.213-4.54,3.322-6.809C43.073.891,43.388.745,44.912,1.25c.836.278,1.653.618,2.458.975a16.182,16.182,0,0,1,6.37,4.8,7.075,7.075,0,0,1,.723,2.306,14.28,14.28,0,0,1-2.336-.47A19.078,19.078,0,0,1,49.7,7.512c.818,1.393.848,1.411.176,2.555a41.677,41.677,0,0,1-7.4,9.915,56.977,56.977,0,0,1-10.6,8.23,23.542,23.542,0,0,1-2.266.985c2.779.172,4.745-1.671,6.972-2.768,2.613,4.025,4.53,8.158,4.858,12.973A41.087,41.087,0,0,0,42.9,47.064,5.559,5.559,0,0,0,47.27,51.2a15.541,15.541,0,0,0,1.937.169A8.726,8.726,0,0,1,47.718,53.3a6.948,6.948,0,0,1-2.059.652,6.617,6.617,0,0,0,1.766.12A26.67,26.67,0,0,1,65,60.755a17.17,17.17,0,0,1,5.536,11.8c.353,4.12-2.12,6.056-6.142,5.147a18.045,18.045,0,0,1-2.293-.748c-1.4-.521-2.79-1.077-4.187-1.61a11.14,11.14,0,0,0-8.1-.375,24.238,24.238,0,0,0-5.086,2.612c-2.324,1.594-4.559,1.451-7,.287l.624-2.052C36.548,78.424,34.7,80.847,30.953,81.1ZM50.12,32.883c.117.852.239,1.676.343,2.5A36.714,36.714,0,0,1,49.94,49.1c-.439,1.738-1.55,2.213-3.238,1.517a5.386,5.386,0,0,1-3.476-4.006c-.6-3.041-1.169-6.1-1.548-9.172a19.846,19.846,0,0,0-2.323-7.29c-.65-1.175-1.311-2.345-1.9-3.548a1.069,1.069,0,0,1,.05-.973c2.246-1.951,4.534-3.854,7.068-5.984a66.9,66.9,0,0,1,4.894,5.6,20.351,20.351,0,0,1,2.011,4.709c.284.757-.041,1.3-.861,1.579-1.575.539-3.129,1.14-4.691,1.716l.027.253ZM7.272,13.636c.588-.7.957-1.18,1.362-1.622,1.526-1.666,3-3.381,4.621-4.956a15.542,15.542,0,0,1,2.9-2.023,1.824,1.824,0,0,1,2.411.384c1.571,1.67,3.224,3.283,4.619,5.092A53.717,53.717,0,0,1,26.3,15.55l-7.355,2.029c-1.227-1.7-2.6-3.64-5.35-4.431l2.031,1.637c-1.369,1.331-2.691,2.551-3.93,3.851a1.146,1.146,0,0,1-1.842.1c-2.441-1.939-3.762-4.6-4.88-7.4a2.889,2.889,0,0,1-.015-.984C6.963,10.844,7.5,11.536,7.272,13.636ZM57.4,46.817c-.608.393-.9.723-1.189.722-.206,0-.409-.45-.613-.7a8.376,8.376,0,0,1,1.036-.435,12.234,12.234,0,0,1,1.277-.22c-1.424-2.371-3.625-2.879-6.033-2.993V38.334c.111-.046.183-.1.25-.1,5.157.339,9.018,7.013,6.68,11.616a1.461,1.461,0,0,1-1.248.623,5.844,5.844,0,0,1-1.963-1.083,2.65,2.65,0,0,1-.582-.929c.978-.172,1.766-.289,2.53-.494A7.959,7.959,0,0,0,57.4,46.817ZM44.429,83.7c-1.439-2.168-1.25-4.365.379-4.842A5.651,5.651,0,0,1,44.429,83.7Z" transform="translate(0)"/><path class="c" d="M28.185,80.115c3.743-.253,5.6-2.676,7.4-5.281l-.624,2.052c2.438,1.164,4.673,1.306,7-.287a24.239,24.239,0,0,1,5.086-2.612,11.14,11.14,0,0,1,8.1.375c1.4.532,2.785,1.089,4.187,1.61a18.045,18.045,0,0,0,2.293.748c4.022.909,6.5-1.027,6.142-5.147a17.17,17.17,0,0,0-5.536-11.8,26.67,26.67,0,0,0-17.575-6.687,6.617,6.617,0,0,1-1.766-.12,6.949,6.949,0,0,0,2.059-.652,8.727,8.727,0,0,0,1.489-1.925,15.537,15.537,0,0,1-1.937-.169,5.559,5.559,0,0,1-4.369-4.139,41.087,41.087,0,0,1-1.458-7.662c-.328-4.815-2.245-8.947-4.858-12.973-2.227,1.1-4.193,2.94-6.972,2.768a23.541,23.541,0,0,0,2.266-.985A56.977,56.977,0,0,0,39.714,19a41.677,41.677,0,0,0,7.4-9.915c.672-1.144.642-1.162-.176-2.555A19.078,19.078,0,0,0,49.36,7.873a14.28,14.28,0,0,0,2.336.47,7.074,7.074,0,0,0-.723-2.306,16.182,16.182,0,0,0-6.37-4.8c-.8-.357-1.622-.7-2.458-.975-1.524-.505-1.839-.359-2.532,1.06C38.5,3.594,37.439,5.886,36.291,8.134A39.371,39.371,0,0,1,25.915,20.61c-1.07.879-2.175,1.716-3.287,2.491l7.216-7.959c-1.6.143-3.207.26-4.809.436a31.518,31.518,0,0,0-11.006,3.463c-2.907,1.49-4.927,3.829-6.9,6.3C4.835,28.216,4.223,31.6,3.789,35.1c-.558,4.5-.044,8.962.352,13.434a35.412,35.412,0,0,1,.17,5.159c-.2,3.425-1.067,6.591-4.311,8.593,2.838.766,6.678-.858,8.589-3.564a13.74,13.74,0,0,0,2.128-6.489c.4-3.273.579-6.588,1.217-9.813a14.558,14.558,0,0,1,2.3-5.559c2.177-3.021,5.056-3.8,8.395-1.744,4.255,2.627,7.835,5.751,9.644,10.689l1.07-1.153c.6,1.5-1.566,4.212-4.12,5.245-2.7,1.091-6.381.225-7.162-1.741,1.115-.171,2.407,0,3.075-1.495l-2.21-.328.534-.572c-.978-.949-1.718-1.034-2.592-.138-2.206,2.261-2.466,4.486.026,6.489,2.6,2.09,5.468,3.571,8.977,3.084a9.8,9.8,0,0,0,5.816-3.449c.623-.668,1.209-1.37,1.811-2.056l.33.188a13.062,13.062,0,0,1-1.349,2.15,2.54,2.54,0,0,0-.64,2.569c.64,2.888-.2,5.637-1.107,8.336-.535,1.6-1.223,3.141-1.867,4.7a11.8,11.8,0,0,0-.906,5.915l2.53-.288.217.387C31.35,74.549,28.98,76.4,28.185,80.115ZM64.241,69.993c.7.291,1.682.386,2.039.909.935,1.372.49,2.868-.21,4.254a2.427,2.427,0,0,1-2.927,1.286,14.842,14.842,0,0,1-3.7-1.468c-1.262-.708-1.316-1.788-.332-2.864C60.464,70.634,62.238,70.275,64.241,69.993Zm-25.63,3.028A3.981,3.981,0,0,1,40.22,69.6c.348-.291,1.093-.67,1.229-.546a2.167,2.167,0,0,1,.712,1.423,4.69,4.69,0,0,1-1.88,3.782c-.915.7-1.446.459-1.628-.693A5.016,5.016,0,0,1,38.611,73.022ZM57.19,69.745l-.182.233c-.281-.247-.731-.448-.813-.75a11.187,11.187,0,0,1-.582-3.1,2.249,2.249,0,0,1,3.406-1.766,4.634,4.634,0,0,1,2.039,2.812c.08.228-.167.57-.262.859-.237-.153-.553-.253-.693-.468a8.4,8.4,0,0,0-.958-1.666c-.409-.379-1.27-.775-1.619-.586a2.139,2.139,0,0,0-.843,1.633A14.3,14.3,0,0,0,57.19,69.745Zm-11.446,1.88a4.4,4.4,0,0,1-1.732,3.212c-.748.472-1.136.174-1.3-.588a3.848,3.848,0,0,1,1.714-3.385C45.2,70.517,45.726,70.823,45.744,71.625Z" transform="translate(2.767 0.985)"/><path class="c" d="M12.759,13.236l-4.169.62L8.562,13.6c1.562-.576,3.116-1.178,4.691-1.716.82-.28,1.146-.822.861-1.579A20.35,20.35,0,0,0,12.1,5.6,66.9,66.9,0,0,0,7.209,0C4.675,2.13,2.387,4.033.141,5.984a1.069,1.069,0,0,0-.05.973c.593,1.2,1.254,2.373,1.9,3.548A19.846,19.846,0,0,1,4.317,17.8c.379,3.075.944,6.131,1.548,9.172a5.386,5.386,0,0,0,3.476,4.006c1.688.7,2.8.221,3.238-1.517A36.713,36.713,0,0,0,13.1,15.739C13,14.912,12.876,14.089,12.759,13.236Z" transform="translate(37.361 19.646)"/><path class="c" d="M2.347,8.9C2.575,6.8,2.038,6.1.038,5.609a2.889,2.889,0,0,0,.015.984c1.118,2.8,2.438,5.459,4.88,7.4a1.146,1.146,0,0,0,1.842-.1c1.239-1.3,2.562-2.52,3.93-3.851L8.674,8.409c2.749.791,4.122,2.733,5.35,4.431l7.355-2.029a53.717,53.717,0,0,0-3.114-5.039C16.869,3.963,15.215,2.35,13.644.68A1.824,1.824,0,0,0,11.233.3a15.541,15.541,0,0,0-2.9,2.023C6.713,3.893,5.235,5.608,3.709,7.274,3.3,7.717,2.935,8.193,2.347,8.9Z" transform="translate(4.925 4.74)"/><path class="c" d="M5.523,8.581a7.957,7.957,0,0,1,.144,1.152c-.764.205-1.552.322-2.53.494a2.65,2.65,0,0,0,.582.929A5.844,5.844,0,0,0,5.682,12.24a1.461,1.461,0,0,0,1.248-.623C9.268,7.013,5.407.34.25,0,.183,0,.111.053,0,.1V4.958c2.408.114,4.609.622,6.033,2.993a12.233,12.233,0,0,0-1.277.22,8.376,8.376,0,0,0-1.036.435c.2.248.408.7.613.7C4.623,9.3,4.915,8.975,5.523,8.581Z" transform="translate(51.875 38.236)"/><path class="c" d="M.971,4.842A5.651,5.651,0,0,0,1.349,0C-.279.476-.468,2.674.971,4.842Z" transform="translate(43.459 78.858)"/><path d="M5.811,0C3.807.282,2.033.641.683,2.117-.3,3.193-.248,4.272,1.015,4.981a14.842,14.842,0,0,0,3.7,1.468A2.427,2.427,0,0,0,7.639,5.163c.7-1.386,1.145-2.882.21-4.254C7.493.386,6.509.291,5.811,0Z" transform="translate(61.198 70.978)"/><path d="M.006,4a5.018,5.018,0,0,0,.042.54c.181,1.152.713,1.4,1.628.693a4.69,4.69,0,0,0,1.88-3.782A2.167,2.167,0,0,0,2.844.024C2.708-.1,1.963.279,1.615.57A3.981,3.981,0,0,0,.006,4Z" transform="translate(41.373 70.01)"/><path d="M1.578,5.679a14.3,14.3,0,0,1-.507-2.8,2.139,2.139,0,0,1,.843-1.633c.35-.189,1.21.208,1.619.586A8.4,8.4,0,0,1,4.49,3.5c.139.215.456.315.693.468.1-.289.343-.632.262-.859A4.634,4.634,0,0,0,3.407.3,2.249,2.249,0,0,0,0,2.063a11.187,11.187,0,0,0,.582,3.1c.082.3.532.5.813.75Z" transform="translate(58.38 65.051)"/><path d="M3.071.9C3.053.1,2.522-.205,1.748.141A3.848,3.848,0,0,0,.034,3.526c.169.762.557,1.061,1.3.588A4.4,4.4,0,0,0,3.071.9Z" transform="translate(45.44 71.707)"/></g><line class="b" y1="0.798" x2="6.384" transform="matrix(-0.999, -0.035, 0.035, -0.999, 557.128, 62.742)"/><line class="b" y1="0.798" x2="6.384" transform="matrix(-0.999, -0.035, 0.035, -0.999, 372.285, 107.681)"/><line class="b" y1="2.394" x2="19.95" transform="matrix(-0.999, -0.035, 0.035, -0.999, 547.447, 65.598)"/><line class="b" y1="2.394" x2="19.95" transform="matrix(-0.999, -0.035, 0.035, -0.999, 362.604, 110.537)"/></g><g transform="translate(-283.271 75.918) rotate(149)"><path d="M0,0C0,.484,0,.886,0,1.288c.07,3.052.156,6.1.2,9.156a1.086,1.086,0,0,0,.751,1.114,37.988,37.988,0,0,0,9.749,3.233c.533.084.705-.027.769-.577.313-2.691.669-5.376,1.015-8.063.042-.329.077-.592-.35-.737A71.834,71.834,0,0,1,.283.094,2.124,2.124,0,0,0,0,0Z" transform="translate(30.395 45.838)"/><path d="M14.151.986,3.229,0,0,8.812c.826.137,1.677.332,2.538.412q3.742.347,7.491.6a.909.909,0,0,0,.74-.37c1.157-2.792,2.27-5.6,3.39-8.41C14.173,1.011,14.147.962,14.151.986Z" transform="translate(47.308 70.276)"/><path d="M8.895,15.11c.279-1.586.656-3.148.806-4.731.172-1.817.158-3.653.184-5.481A.928.928,0,0,0,9.519,4.2C7.15,2.8,4.762,1.427,2.377.048A1.043,1.043,0,0,0,2.169,0c-.082.525-.133,1.053-.249,1.567q-.9,4-1.838,7.983c-.075.321-.2.589.172.817a55.6,55.6,0,0,0,8.319,4.678A2.646,2.646,0,0,0,8.895,15.11Z" transform="translate(20.685 52.772)"/><path d="M0,7.808A46.285,46.285,0,0,1,10.667,9.5a.855.855,0,0,0,1.157-.528c1.085-2.111,2.218-4.2,3.325-6.3.2-.379.36-.778.579-1.255C14.491,1.176,13.312.87,12.114.713c-2.195-.288-4.4-.5-6.6-.71A.918.918,0,0,0,4.782.3C3.219,2.676,1.691,5.079.155,7.477A3.6,3.6,0,0,0,0,7.808Z" transform="translate(31.251 77.76)"/><path d="M4.706,0A37.328,37.328,0,0,1,0,9.8c1.746.552,3.45,1.094,5.2.59a23.567,23.567,0,0,1,5.471-.879.836.836,0,0,0,.63-.342c1.122-2.583,2.209-5.182,3.219-7.906C11.118,1.592,7.854,1.556,4.706,0Z" transform="translate(24.934 68.081)"/><path d="M14.271,5.294C11.022,4.189,8.442,2.1,5.873,0,4.106,2.128,2.639,4.463,0,5.542.588,8.507,2.739,10.3,4.908,12.073a.785.785,0,0,0,.657.138,18.055,18.055,0,0,0,8.554-6.618C14.156,5.537,14.18,5.473,14.271,5.294Z" transform="translate(10.369 72.652)"/><path d="M13.03.921,2.18,0,0,8.157,10.725,9Z" transform="translate(39.712 60.851)"/><path d="M1.507,0,0,7.483l10.578.577L12.2,0Z" transform="translate(52.989 54.197)"/><path d="M14.574,4.971c-.934-1.154-1.663-2.49-3.358-2.95l1.923-.758.043-.21A6.02,6.02,0,0,0,12.121.776c-.514-.042-1.04.053-1.551,0A3.6,3.6,0,0,1,9.29.433,4.914,4.914,0,0,0,5.855.194c-.167.035-.37.373-.381.58a7.078,7.078,0,0,0,.139,1.235h5.2l.082.164-.7.77c1.062.386,1.162.82.977,1.846A2.934,2.934,0,0,0,11.6,7.274l.6-1.066.318.192a3.389,3.389,0,0,1-.085.793q-1.134,3.193-2.3,6.374Q5.645,25.684,1.143,37.793C.9,38.448.559,39.066.284,39.71c-.117.274-.182.57-.284.9a10.73,10.73,0,0,0,1.115.178c.407.02.637-.069.728-.613a15,15,0,0,1,.811-2.639C3.818,34.354,5,31.182,6.182,28.005c.854-2.3,1.7-4.607,2.562-6.907a10.794,10.794,0,0,1,1.021-2.5c1.457-2.056,1.718-4.55,2.664-6.788a47.32,47.32,0,0,0,1.7-4.826c.129-.43-.138-.978-.244-1.591Z" transform="translate(7.171 36.279)"/><path d="M9.228,9.107c0-.736-.017-1.588,0-2.44.043-1.76.086-3.521.174-5.279C9.426.971,9.33.829,8.935.674,6.643-.226,4.265.032,1.888.042L0,8.431Z" transform="translate(61.889 62.327)"/><path d="M0,38.059c.342.173.616.324.9.453.48.219.75.036.92-.449,1.345-3.833,2.678-7.67,4.062-11.489,1.633-4.5,3.306-8.99,4.976-13.479.882-2.371,1.81-4.725,2.685-7.1.515-1.4.963-2.819,1.449-4.227.16-.465.344-.922.518-1.386-.878-.644-1.4-.483-1.774.53Q7.6,17.51,1.459,34.1C.976,35.413.493,36.722,0,38.059Z" transform="translate(21.674 0)"/><path d="M7.79.007c-1.038,0-2.076-.025-3.112.019a.928.928,0,0,0-.672.4C2.671,2.962,1.369,5.515.061,8.065A1.745,1.745,0,0,0,0,8.385c1.021,0,2.007.04,2.986-.026a1.114,1.114,0,0,0,.75-.555,11.006,11.006,0,0,0,.582-1.651c.294-.923.525-1.87.875-2.77A6.425,6.425,0,0,1,7.79.007Z" transform="translate(53.812 80.171)"/><path d="M2.783,3.264C2.445,4.179,2.1,5.1,1.763,6.03c-.351.977-.1,1.344.912,1.452L3.945,4.438a1.562,1.562,0,0,0,1.781-.516A5.485,5.485,0,0,1,4.251,1.131c-.083-.347-.2-.567-.581-.617C2.451.354,1.236.174,0,0-.061,1.286.665,2.093,2.783,3.264Z" transform="translate(3.088 77.402)"/><path d="M2.739,5.7c.256-.281.529-.551.762-.85a.9.9,0,0,0,.2-.507A5.465,5.465,0,0,1,4.638.469C4.263.332,3.865.2,3.477.042A4.036,4.036,0,0,0,1.085.606,13.191,13.191,0,0,1,0,1.465L2.619,5.922Z" transform="translate(0 71.306)"/><path d="M4.029,2.427c-.033-.415-.085-.806-.091-1.2C3.922.379,3.614,0,2.773,0,1.9,0,1.035.089,0,.149c.207.452.351.718.453,1A5.124,5.124,0,0,0,.821,2.255a1.277,1.277,0,0,0,.831.566,8.18,8.18,0,0,0,1.661-.246C3.566,2.531,3.816,2.472,4.029,2.427Z" transform="translate(22.041 40.929)"/><path d="M3.345.238,0,0A2.658,2.658,0,0,0,2.185,1.359C2.822,1.338,3.152.97,3.345.238Z" transform="translate(66.319 80.091)"/></g></g></svg>